<svg width="512" height="512" viewBox="0 0 512 512" fill="none" xmlns="http://www.w3.org/2000/svg">
<rect x="50" y="50" width="412" height="412" rx="100" fill="#252424"/>
<g filter="url(#filter0_d_42_7)">
<path d="M151.158 345.386C151.158 345.386 273.664 341.855 318.976 257.625L318.974 257.624C364.286 173.394 290.74 146.337 208.227 134.977C125.715 123.614 107.095 147.23 97.5778 164.611C79.0589 213.075 229.717 183.606 227.256 244.43C227.887 268.73 215.585 317.618 151.158 345.386Z" fill="#EFEDFF"/>
<path d="M320.121 289.326C341.782 279.38 381.324 258.151 391.683 218.961H391.684C403.678 173.586 387.985 163.502 376.145 164.611C364.305 165.721 355.313 179.736 358.24 208.986C362.466 251.231 335.927 279.382 320.121 289.326Z" fill="#EFEDFF"/>
<path d="M97.9429 360.073C97.9429 360.073 97.9444 360.073 97.9474 360.075C98.6948 360.217 193.264 378.046 285.656 323.431C378.419 268.598 415 323.43 415 323.43C415 323.43 387.126 312.986 293.06 360.073C199.353 406.979 98.7184 360.433 97.9474 360.075C97.9444 360.074 97.9429 360.074 97.9429 360.074V360.073Z" fill="#EFEDFF"/>
</g>
<defs>
<filter id="filter0_d_42_7" x="96" y="132" width="319" height="269" filterUnits="userSpaceOnUse" color-interpolation-filters="sRGB">
<feFlood flood-opacity="0" result="BackgroundImageFix"/>
<feColorMatrix in="SourceAlpha" type="matrix" values="0 0 0 0 0 0 0 0 0 0 0 0 0 0 0 0 0 0 127 0" result="hardAlpha"/>
<feOffset dy="20"/>
<feComposite in2="hardAlpha" operator="out"/>
<feColorMatrix type="matrix" values="0 0 0 0 0 0 0 0 0 0 0 0 0 0 0 0 0 0 0.25 0"/>
<feBlend mode="normal" in2="BackgroundImageFix" result="effect1_dropShadow_42_7"/>
<feBlend mode="normal" in="SourceGraphic" in2="effect1_dropShadow_42_7" result="shape"/>
</filter>
</defs>
</svg>
